# xmcd CD database file
#
# Track frame offsets:
#	150
#	19407
#	41780
#	64570
#	88120
#	106692
#	130617
#	165870
#	190747
#
# Disc length: 2815 seconds
#
# Revision: 0
# Processed by: cddbd v1.5.1PL0 Copyright (c) Steve Scherf et al.
# Submitted via: CDex 1.50
#
DISCID=670afd09
DTITLE=Varios - Salsa colección estelar 93
DYEAR=1993
DGENRE=Salsa
TTITLE0=Verdades
TTITLE1=Me gusta
TTITLE2=Sobrevivire
TTITLE3=LA mujer que yo amo
TTITLE4=Cumbia de la paz
TTITLE5=Mascaras
TTITLE6=Medley
TTITLE7=No podras escapar de mi
TTITLE8=Toma todo de mi
EXTD=YEAR: 1993
EXTT0=
EXTT1=
EXTT2=
EXTT3=
EXTT4=
EXTT5=
EXTT6=
EXTT7=
EXTT8=
PLAYORDER=
